<svg id="Layer_1" data-name="Layer 1" xmlns="http://www.w3.org/2000/svg" viewBox="0 0 111.16 107.84"><defs><style>.cls-1{fill:#ec671b;}</style></defs><path class="cls-1" d="M184.45,71.76a12.29,12.29,0,1,1-12.29-12.29A12.29,12.29,0,0,1,184.45,71.76Z" transform="translate(-116.58 -59.47)"/><path class="cls-1" d="M133.32,91.73a1.67,1.67,0,0,0-1.21-1.1,7,7,0,0,0-2.17-.29c-1.84,0-2.66.33-2.66.92,0,2.41,14.7.91,14.7,6.78,0,3.74-4.93,5.56-12,5.56-6.75,0-11.15-2.49-11.33-5.4h8a2.13,2.13,0,0,0,1.39,1.28,7,7,0,0,0,2.38.4c2.09,0,3.48-.43,3.48-1.19,0-2.44-14.71-.76-14.71-6.92,0-3.43,4.69-5.15,11.08-5.15,7.11,0,10.34,2.28,10.94,5.11Z" transform="translate(-116.58 -59.47)"/><path class="cls-1" d="M145.86,103.17V87h20.85v3.77H154.24v2.3h10.55v3.77H154.24v2.53h13v3.76Z" transform="translate(-116.58 -59.47)"/><path class="cls-1" d="M188.23,95.85l-.32-3.68V87h8v16.13h-7.85L179,94.39l.32,3.67v5.11h-8V87h7.85Z" transform="translate(-116.58 -59.47)"/><path class="cls-1" d="M198.78,103.17,208,87h8.52l9.17,16.13h-8.35l-1-2.13H208l-1,2.13ZM212.14,91.9l-2.59,5.78h5.29Z" transform="translate(-116.58 -59.47)"/><polygon class="cls-1" points="110.92 47.21 59.67 47.21 89.5 100.19 96.08 94.47 72.21 54.61 111.16 54.51 110.92 47.21"/><polygon class="cls-1" points="0.24 47.21 51.49 47.21 21.66 100.19 15.08 94.47 38.95 54.61 0 54.51 0.24 47.21"/><polygon class="cls-1" points="27.37 104.44 55.34 56.18 84.11 103.97 76.51 107.4 55.98 70.69 34.12 107.84 27.37 104.44"/></svg>